Coordinates
version=1
nRows=14
nColumns=42
inDegrees=yes

Units are S.I. units (second, meters, Newtons, ...)
If the header above contains a line with 'inDegrees', this indicates whether rotational values are in degrees (yes) or radians (no).

endheader
time	pelvis_tilt	pelvis_list	pelvis_rotation	pelvis_tx	pelvis_ty	pelvis_tz	hip_flexion_r	hip_adduction_r	hip_rotation_r	knee_angle_r	knee_angle_r_beta	ankle_angle_r	subtalar_angle_r	mtp_angle_r	hip_flexion_l	hip_adduction_l	hip_rotation_l	knee_angle_l	knee_angle_l_beta	ankle_angle_l	subtalar_angle_l	mtp_angle_l	lumbar_extension	lumbar_bending	lumbar_rotation	sh_tx_r	sh_ty_r	sh_tz_r	sh_plane_elev_r	sh_elev_r	sh_axial_rot_r	elbow_flex_r	pro_sup_r	sh_tx_l	sh_ty_l	sh_tz_l	sh_plane_elev_l	sh_elev_l	sh_axial_rot_l	elbow_flex_l	pro_sup_l
      4.68333330	     -4.22344099	     -1.56942590	     -2.21390146	      0.32405923	      0.93465332	     -0.00088474	      0.76278246	     -4.02001031	     -8.80120569	      1.37911904	      0.02407017	      2.90584841	     -1.73078851	     -7.49999987	      1.07569506	     -6.64522304	    -12.89923459	      0.47036722	      0.00820946	      7.14035113	      2.15524384	     -7.49999987	      3.17974147	      7.44749811	     -2.58437424	     -0.00109823	     -0.01390133	     -0.00671357	    -19.67261498	      2.44403786	     -1.61071652	     32.10973961	    112.30118827	     -0.00974791	      0.04299300	     -0.00447283	     84.30657789	     98.82698969	      3.03785640	      5.54869278	      2.82656998
      4.70000000	     -4.25415556	     -1.58380025	     -2.20300295	      0.32391105	      0.93496640	     -0.00083682	      0.79555567	     -4.01953890	     -8.74497558	      1.40021546	      0.02443837	      2.87058273	     -1.91578323	     -7.49999987	      1.10213456	     -6.66103322	    -12.76528666	      0.48227295	      0.00841725	      7.13244282	      1.97480092	     -7.49999987	      3.27013732	      7.47351105	     -2.83225971	     -0.00004521	     -0.01400488	     -0.00671426	    -19.74538233	      2.43285413	     -1.25195421	     32.08271919	    112.68882511	     -0.01023475	      0.04285949	     -0.00442361	     84.20489527	     98.87948849	      3.26120826	      5.59914439	      2.90872178
      4.71666670	     -4.23552014	     -1.60244689	     -2.22607168	      0.32412518	      0.93486904	     -0.00094294	      0.78050138	     -4.02426093	     -8.58981201	      1.41799351	      0.02474866	      2.77656991	     -2.23896074	     -7.49999987	      1.06882947	     -6.68446238	    -12.76154834	      0.48562474	      0.00847575	      7.13574754	      1.97796043	     -7.49999987	      3.20036904	      7.52139278	     -2.51085468	     -0.00117014	     -0.01393152	     -0.00669601	    -19.36474024	      2.48844342	     -1.72636151	     31.99309319	    112.55690955	     -0.01023573	      0.04272922	     -0.00444823	     84.41041760	     98.93481155	      3.85048152	      5.48203636	      2.88567163
      4.73333330	     -4.11374054	     -1.64644801	     -2.21949601	      0.32392517	      0.93534328	     -0.00093695	      0.63945860	     -3.99876987	     -8.64768303	      1.42371626	      0.02484854	      2.76399516	     -2.20071115	     -7.49999987	      0.89667509	     -6.75217727	    -12.61600345	      0.48201647	      0.00841277	      7.05347607	      1.76717188	     -7.49999987	      3.09654093	      7.56146166	     -2.77102602	     -0.00028515	     -0.01383813	     -0.00667998	    -19.11076215	      2.44560509	     -1.68501134	     31.91626161	    111.80404283	     -0.01113220	      0.04273417	     -0.00450279	     84.04929322	     98.97372278	      3.79775995	      5.61608096	      3.40744164
      4.75000000	     -4.18300677	     -1.63740410	     -2.22520095	      0.32420814	      0.93502723	     -0.00101625	      0.73004647	     -4.00911215	     -8.60111198	      1.49958657	      0.02617272	      2.76702894	     -2.31422751	     -7.49999987	      0.98692490	     -6.73135908	    -12.39460557	      0.49859659	      0.00870215	      6.95873739	      1.39677561	     -7.49999987	      3.07056225	      7.51325199	     -1.96085701	     -0.00331263	     -0.01425220	     -0.00666973	    -19.28224731	      2.53320684	     -2.15728309	     31.94893910	    112.43820664	     -0.00978897	      0.04253635	     -0.00443590	     85.01050059	     99.14769266	      3.74617852	      5.11942159	      2.96955949
      4.76666670	     -4.18485870	     -1.61047327	     -2.24072856	      0.32399973	      0.93532732	     -0.00085708	      0.73060577	     -4.01825263	     -8.40493755	      1.53182550	      0.02673540	      2.59672862	     -2.84499194	     -7.49999987	      1.00106488	     -6.69696999	    -12.46444697	      0.51466249	      0.00898255	      7.03117377	      1.52754487	     -7.49999987	      3.05178349	      7.53810332	     -2.12184841	     -0.00270759	     -0.01415516	     -0.00668785	    -19.73720006	      2.44857946	     -2.03733635	     32.03115660	    112.82061609	     -0.01066386	      0.04221404	     -0.00443925	     84.59628679	     99.28225551	      3.91123600	      5.33611555	      2.94581294
      4.78333330	     -4.22150999	     -1.57586035	     -2.24833325	      0.32426343	      0.93503408	     -0.00093140	      0.78250818	     -4.04579413	     -8.44442063	      1.60428825	      0.02800011	      2.66211447	     -2.80712536	     -7.49999987	      1.03556460	     -6.65627312	    -12.38792412	      0.52107715	      0.00909451	      7.01463843	      1.45387437	     -7.49999987	      3.13651215	      7.50056933	     -2.38730752	     -0.00148188	     -0.01416938	     -0.00669698	    -19.17896359	      2.57150906	     -1.54354722	     31.96612693	    112.54090660	     -0.01151604	      0.04222735	     -0.00441927	     84.37105788	     99.24751306	      3.82174601	      5.11902353	      2.87087008
      4.80000000	     -4.21332348	     -1.51400238	     -2.21396272	      0.32785124	      0.93532609	     -0.00538962	      0.72569560	     -4.16436079	     -8.43420663	      1.63956277	      0.02861577	      2.62773038	     -2.79993369	     -7.49999987	      1.00402245	     -6.54591573	    -12.34273808	      0.53533516	      0.00934336	      7.00883001	      1.46297437	     -7.49999987	      3.16143204	      7.52903433	     -2.46033151	     -0.00182718	     -0.01403238	     -0.00659660	    -19.23883934	      2.78844400	     -1.57608090	     31.95005388	    112.54564876	     -0.01255690	      0.04202893	     -0.00436672	     84.40836057	     99.28572480	      3.82298965	      5.11568782	      2.88006804
      4.81666670	     -4.30445192	     -1.51378268	     -2.22672865	      0.32429424	      0.93492674	     -0.00065639	      0.85155405	     -4.14647231	     -8.53967142	      1.69389592	      0.02956406	      2.74877412	     -2.88027874	     -7.49999987	      1.14249215	     -6.53662093	    -12.35948081	      0.60607739	      0.01057805	      7.15296094	      1.34419894	     -7.49999987	      3.14209181	      7.61257220	     -2.30013473	     -0.00280057	     -0.01400784	     -0.00653438	    -19.10373723	      2.67492058	     -1.49272762	     31.99804953	    112.32720618	     -0.01320883	      0.04211245	     -0.00446402	     84.24900441	     99.32415639	      3.81321807	      5.34824708	      3.23355289
      4.83333330	     -4.21829222	     -1.38706244	     -2.18539632	      0.32787104	      0.93535244	     -0.00513264	      0.71310896	     -4.34261961	     -8.46056361	      1.71292347	      0.02989615	      2.63787921	     -2.82709581	     -7.49999987	      1.01333163	     -6.32906048	    -12.26079306	      0.55493703	      0.00968548	      7.00339748	      1.34824493	     -7.49999987	      3.21385893	      7.53427544	     -2.40869638	     -0.00265342	     -0.01420154	     -0.00667613	    -19.20019425	      2.96774437	     -1.54521888	     31.97372347	    112.34134976	     -0.01273905	      0.04099445	     -0.00433690	     84.26411123	     99.40099749	      3.80740734	      5.27503112	      3.18354620
      4.85000000	     -4.17157465	     -1.34677944	     -2.21063233	      0.32437511	      0.93242609	     -0.00057753	      0.66805547	     -4.37507040	     -8.46314660	      1.71062509	      0.02985604	      2.65722731	     -2.86473965	     -7.49999987	      0.95919474	     -6.26383014	    -12.25127490	      0.53930093	      0.00941258	      7.02573402	      1.19008093	     -7.49999987	      3.21991707	      7.44076175	     -2.35152395	     -0.00239613	     -0.01414455	     -0.00666264	    -19.17516129	      2.82206254	     -1.50029586	     31.94961506	    112.33322301	     -0.01195217	      0.04131111	     -0.00439077	     84.20503812	     99.52913158	      3.81185626	      5.25099242	      3.20010992
      4.86666670	     -4.08407950	     -1.35131274	     -2.19683595	      0.32405734	      0.93566910	     -0.00043404	      0.58766665	     -4.32446598	     -8.38792675	      1.70569456	      0.02976999	      2.67868418	     -3.09147004	     -7.49999987	      0.87484630	     -6.28552188	    -11.94735557	      0.53047995	      0.00925862	      6.80427370	      0.73559454	     -7.49999987	      3.01673630	      7.43772163	     -2.35131724	     -0.00190567	     -0.01416477	     -0.00665548	    -18.78845855	      2.76645518	     -1.43491565	     32.03063828	    112.09269838	     -0.01257038	      0.04157607	     -0.00435122	     83.98625227	     99.52696239	      4.20598726	      5.29254477	      2.78807883
      4.88333330	     -4.07858192	     -1.33159188	     -2.20812607	      0.32423294	      0.93528902	     -0.00044862	      0.58433908	     -4.31542177	     -8.46328373	      1.68837349	      0.02946768	      2.84933870	     -2.98700461	     -7.49999987	      0.87568606	     -6.29471482	    -11.78804785	      0.53347601	      0.00931091	      6.74145957	      0.57113334	     -7.49999987	      2.96661067	      7.43403513	     -2.48176645	     -0.00135040	     -0.01433957	     -0.00669494	    -18.37544465	      2.71991448	     -1.80241145	     32.01980186	    112.18552935	     -0.01293292	      0.04182459	     -0.00432188	     83.45889536	     99.33905471	      5.03195573	      5.38211717	      2.77959746
      4.90000000	     -4.07122295	     -1.31878534	     -2.30191043	      0.32400504	      0.93554669	     -0.00031551	      0.59933615	     -4.30661159	     -8.37155121	      1.62996872	      0.02844832	      2.90369063	     -3.00541515	     -7.49999987	      0.85474641	     -6.31181544	    -11.85926223	      0.52897599	      0.00923237	      6.77499937	      0.69244784	     -7.49999987	      2.89448034	      7.46008071	     -2.29285632	     -0.00161442	     -0.01445459	     -0.00670010	    -19.13568508	      2.59827852	     -1.71765260	     32.12065662	    112.45150510	     -0.01223531	      0.04187472	     -0.00434128	     83.52334436	     99.30431962	      5.15603366	      5.41395164	      2.85333066
